<svg xmlns="http://www.w3.org/2000/svg" version="1.1" xmlns:xlink="http://www.w3.org/1999/xlink" xmlns:svgjs="http://svgjs.dev/svgjs" width="1024" height="1500" preserveAspectRatio="none" viewBox="0 0 1024 1500"><g mask="url(&quot;#SvgjsMask1186&quot;)" fill="none"><rect width="1024" height="1500" x="0" y="0" fill="rgba(0, 0, 0, 1)"></rect><path d="M73.52 638.23 a301.18 301.18 0 1 0 602.36 0 a301.18 301.18 0 1 0 -602.36 0z" fill="rgba(9, 37, 57, 0.4)" class="triangle-float1"></path><path d="M572.852,1696.28C653.898,1699.935,738.195,1667.958,776.919,1596.669C814.352,1527.757,787.374,1445.446,744.924,1379.505C706.453,1319.745,643.834,1283.256,572.852,1279.678C494.229,1275.715,407.451,1292.456,367.862,1360.5C328.119,1428.81,357.176,1512.142,398.356,1579.596C437.433,1643.606,497.933,1692.901,572.852,1696.28" fill="rgba(9, 37, 57, 0.4)" class="triangle-float2"></path><path d="M119.06 755.38 a268.61 268.61 0 1 0 537.22 0 a268.61 268.61 0 1 0 -537.22 0z" fill="rgba(9, 37, 57, 0.4)" class="triangle-float2"></path><path d="M-87.09 226.47 a297.55 297.55 0 1 0 595.1 0 a297.55 297.55 0 1 0 -595.1 0z" fill="rgba(9, 37, 57, 0.4)" class="triangle-float2"></path><path d="M482.827,253.614C537.665,255.428,589.777,224.758,615.533,176.311C639.939,130.404,625.791,77.169,600.899,31.524C574.591,-16.717,537.775,-67.184,482.827,-67.033C428.037,-66.882,390.511,-16.767,365.874,32.171C344.051,75.521,341.837,125.093,364.502,168.008C388.869,214.146,430.679,251.889,482.827,253.614" fill="rgba(9, 37, 57, 0.4)" class="triangle-float3"></path><path d="M272.465,1311.888C303.144,1309.763,321.747,1281.907,337.497,1255.493C353.823,1228.113,373.256,1196.557,357.89,1168.627C342.22,1140.145,304.954,1136.171,272.465,1137.29C242.364,1138.327,212.974,1148.863,196.66,1174.181C178.893,1201.754,173.884,1236.994,189.702,1265.73C206.029,1295.389,238.69,1314.227,272.465,1311.888" fill="rgba(9, 37, 57, 0.4)" class="triangle-float1"></path><path d="M968.782,1138.743C1038.995,1139.534,1105.053,1105.213,1141.695,1045.315C1180.025,982.657,1187.654,903.93,1151.561,839.957C1114.89,774.96,1043.248,733.929,968.782,738.838C900.969,743.308,856.19,802.023,823.464,861.584C792.302,918.299,772.435,984.184,802.485,1041.496C834.445,1102.451,899.961,1137.968,968.782,1138.743" fill="rgba(9, 37, 57, 0.4)" class="triangle-float2"></path><path d="M233.792,914.586C273.203,912.503,299.724,878.013,317.918,842.991C334.419,811.229,339.058,774.906,322.966,742.936C305.042,707.327,273.629,677.386,233.792,675.859C191.632,674.242,152.86,698.977,131.93,735.611C111.164,771.958,112.004,816.399,132.71,852.78C153.647,889.568,191.522,916.82,233.792,914.586" fill="rgba(9, 37, 57, 0.4)" class="triangle-float2"></path><path d="M666.758,1325.047C783.088,1329.944,889.886,1256.35,943.562,1153.027C993.553,1056.798,969.804,943.416,913.001,851.045C859.22,763.588,769.41,700.976,666.758,702.892C567.031,704.753,484.557,772.858,435.935,859.948C388.654,944.636,384.458,1044.424,427.576,1131.305C476.462,1229.809,556.887,1320.422,666.758,1325.047" fill="rgba(9, 37, 57, 0.4)" class="triangle-float1"></path><path d="M-21.54 388.66 a176.7 176.7 0 1 0 353.4 0 a176.7 176.7 0 1 0 -353.4 0z" fill="rgba(9, 37, 57, 0.4)" class="triangle-float2"></path><path d="M214.54 542.21 a226.65 226.65 0 1 0 453.3 0 a226.65 226.65 0 1 0 -453.3 0z" fill="rgba(9, 37, 57, 0.4)" class="triangle-float2"></path><path d="M1045.473,1452.581C1131.875,1456.681,1213.029,1411.462,1258.789,1338.058C1307.448,1260.005,1320.396,1162.327,1276.962,1081.25C1231.2,995.827,1142.047,931.827,1045.473,939.866C957.807,947.163,910.181,1035.526,872.325,1114.933C840.875,1180.904,831.211,1254.318,864.56,1319.35C901.187,1390.775,965.294,1448.776,1045.473,1452.581" fill="rgba(9, 37, 57, 0.4)" class="triangle-float3"></path></g><defs><mask id="SvgjsMask1186"><rect width="1024" height="1500" fill="#ffffff"></rect></mask><style>
                @keyframes float1 {
                    0%{transform: translate(0, 0)}
                    50%{transform: translate(-10px, 0)}
                    100%{transform: translate(0, 0)}
                }

                .triangle-float1 {
                    animation: float1 5s infinite;
                }

                @keyframes float2 {
                    0%{transform: translate(0, 0)}
                    50%{transform: translate(-5px, -5px)}
                    100%{transform: translate(0, 0)}
                }

                .triangle-float2 {
                    animation: float2 4s infinite;
                }

                @keyframes float3 {
                    0%{transform: translate(0, 0)}
                    50%{transform: translate(0, -10px)}
                    100%{transform: translate(0, 0)}
                }

                .triangle-float3 {
                    animation: float3 6s infinite;
                }
            </style></defs></svg>